<?xml version="1.0" encoding="UTF-8" standalone="no"?>
<!-- Created with Inkscape (http://www.inkscape.org/) -->

<svg
   width="5.9518776mm"
   height="5.9375377mm"
   viewBox="0 0 5.9518776 5.9375377"
   version="1.1"
   id="svg1"
   inkscape:version="1.3.2 (091e20e, 2023-11-25, custom)"
   sodipodi:docname="Maximizar.svg"
   xmlns:inkscape="http://www.inkscape.org/namespaces/inkscape"
   xmlns:sodipodi="http://sodipodi.sourceforge.net/DTD/sodipodi-0.dtd"
   xmlns="http://www.w3.org/2000/svg"
   xmlns:svg="http://www.w3.org/2000/svg">
  <sodipodi:namedview
     id="namedview1"
     pagecolor="#ffffff"
     bordercolor="#666666"
     borderopacity="1.0"
     inkscape:showpageshadow="2"
     inkscape:pageopacity="0.0"
     inkscape:pagecheckerboard="0"
     inkscape:deskcolor="#d1d1d1"
     inkscape:document-units="mm"
     inkscape:zoom="24.843752"
     inkscape:cx="266.58615"
     inkscape:cy="164.93081"
     inkscape:window-width="1920"
     inkscape:window-height="1051"
     inkscape:window-x="-9"
     inkscape:window-y="-9"
     inkscape:window-maximized="1"
     inkscape:current-layer="layer1" />
  <defs
     id="defs1" />
  <g
     inkscape:label="Capa 1"
     inkscape:groupmode="layer"
     id="layer1"
     transform="translate(-67.260141,-40.490809)">
    <g
       id="g1">
      <path
         id="rect2"
         style="opacity:0.998;fill:#000000;fill-opacity:1;stroke:none;stroke-width:0.264583;stroke-dasharray:none"
         d="m 67.260142,40.491006 3.65e-4,2.651032 1.014006,-1.014006 0.620462,0.620462 0.622655,-0.622654 -0.620462,-0.620463 1.014371,-1.014371 z" />
      <path
         id="rect2-3"
         style="opacity:0.998;fill:#000000;fill-opacity:1;stroke:none;stroke-width:0.264583;stroke-dasharray:none"
         d="m 67.260337,46.428349 2.651033,-3.64e-4 -1.014006,-1.014006 0.620462,-0.620463 -0.622655,-0.622654 -0.620462,0.620462 -1.014372,-1.014372 z" />
      <path
         id="rect2-8"
         style="opacity:0.998;fill:#000000;fill-opacity:1;stroke:none;stroke-width:0.264583;stroke-dasharray:none"
         d="m 73.212018,46.428349 -2.651033,-3.65e-4 1.014006,-1.014006 -0.620462,-0.620462 0.622655,-0.622655 0.620462,0.620462 1.014372,-1.014371 z" />
      <path
         id="rect2-9"
         style="opacity:0.998;fill:#000000;fill-opacity:1;stroke:none;stroke-width:0.264583;stroke-dasharray:none"
         d="m 73.212017,40.49081 -2.651032,3.65e-4 1.014006,1.014006 -0.620463,0.620462 0.622655,0.622655 0.620462,-0.620462 1.014372,1.014372 z" />
    </g>
  </g>
</svg>
